<svg width="48" height="48" viewBox="0 0 48 48" fill="none" xmlns="http://www.w3.org/2000/svg">
<g clip-path="url(#clip0_6287_585)">
<rect width="48" height="48" rx="4" fill="black"/>
<path d="M26.7737 7.782C28.8283 7.874 30.745 8.27267 32.5237 8.978C34.3023 9.68333 35.7283 10.6953 36.8017 12.014C37.875 13.3327 38.4117 14.8813 38.4117 16.66C38.4117 19.9107 37.139 22.226 34.5937 23.606C32.079 24.986 29.135 25.7527 25.7617 25.906C25.087 25.9367 24.029 25.952 22.5877 25.952H20.4717V36.9C20.4717 38.2187 20.809 39.1233 21.4837 39.614C22.1583 40.1047 23.1243 40.35 24.3817 40.35H25.0257C25.2403 40.35 25.3477 40.534 25.3477 40.902C25.3477 41.3007 25.2403 41.5 25.0257 41.5H10.6737C10.459 41.5 10.3517 41.3007 10.3517 40.902C10.3517 40.534 10.459 40.35 10.6737 40.35H11.3177C12.5137 40.35 13.4643 40.1047 14.1697 39.614C14.875 39.1233 15.2277 38.2187 15.2277 36.9V12.382C15.2277 11.094 14.875 10.2047 14.1697 9.714C13.495 9.19267 12.5443 8.932 11.3177 8.932H10.6737C10.459 8.932 10.3517 8.748 10.3517 8.38C10.3517 7.98133 10.459 7.782 10.6737 7.782L21.7137 7.736C24.6577 7.736 26.3443 7.75133 26.7737 7.782ZM23.9677 24.618C27.157 24.5567 29.3957 23.8053 30.6837 22.364C31.9717 20.9227 32.6157 18.96 32.6157 16.476C32.6157 14.5747 32.125 13.072 31.1437 11.968C30.1623 10.864 29.0277 10.1127 27.7397 9.714C26.4823 9.28466 25.3323 9.07 24.2897 9.07C23.1857 9.07 22.2657 9.26933 21.5297 9.668C20.8243 10.0667 20.4717 10.8487 20.4717 12.014V24.664H21.7597C22.8637 24.664 23.5997 24.6487 23.9677 24.618Z" fill="#FAFAFA"/>
</g>
<rect x="0.75" y="0.75" width="46.5" height="46.5" rx="3.25" stroke="white" stroke-width="1.5"/>
<defs>
<clipPath id="clip0_6287_585">
<rect width="48" height="48" rx="4" fill="white"/>
</clipPath>
</defs>
</svg>
